<svg display="none" xmlns="http://www.w3.org/2000/svg">

  <symbol id="triangle-first"
    width="1200"
    height="57"
    viewBox="0 0 1200 57"
    fill="none">
    <path d="M249.6 23.7L0 0V57H249.6H600L249.6 0V23.7Z" fill="white"/>
    <path d="M950.4 23.7V0L600 57H950.4H1199.9V0L950.4 23.7Z" fill="white"/>
  </symbol>

  <symbol id="triangle-second"
    width="767"
    height="37"
    viewBox="0 0 320 37"
    fill="currentColor">
    <path fill-rule="evenodd" clip-rule="evenodd" d="M-225 0H159V37L-225 0Z" fill="white"/>
    <path fill-rule="evenodd" clip-rule="evenodd" d="M543 0H159V37L543 0Z" fill="white"/>
  </symbol>


  <symbol id="icon__food"
    fill="#81B3D2"
    viewBox="0 0 80 80">
    <path d="M72.53 36.37c.02-.82.06-1.94-.02-2.23C71.81 18.52 57.45 6 39.8 6S7.69 18.52 6.99 34.14v3H72.5l.02-.77ZM39.8 9c15.96 0 29.12 11.22 29.72 25.14H9.98C10.68 20.22 23.84 9 39.8 9ZM23.24 48.86l-5.38-4-5.49 4L6 44.16l1.8-2.4 4.58 3.3 5.49-4 5.38 4 5.49-4 5.49 4 5.48-4 5.39 4 5.48-4 5.49 4 5.48-4 5.49 4 4.59-3.3 1.7 2.4-6.3 4.7-5.48-4-5.48 4-5.49-4-5.48 4-5.39-4-5.48 4-5.49-4-5.49 4ZM6.3 52.06H73.7c2.4 0 4.29 2.01 4.29 4.21v3.5c0 2.41-2 4.31-4.29 4.31h-1v1c0 5.41-4.38 9.92-9.87 9.92H17.16a9.92 9.92 0 0 1-9.87-9.91v-1h-1c-2.4 0-4.29-1.9-4.29-4.21v-3.5c0-2.31 1.9-4.31 4.29-4.31ZM62.94 72c3.79 0 6.88-3.1 6.88-6.91v-1H10.18v1c0 3.8 3.09 6.9 6.88 6.9h45.88Zm10.77-10.92c.7 0 1.3-.6 1.3-1.3h.1v-3.4c0-.7-.6-1.3-1.3-1.3H6.3c-.7 0-1.3.6-1.3 1.2v3.5c0 .7.6 1.3 1.3 1.3H73.7ZM41.9 21.62a2 2 0 1 1-4 .01 2 2 0 0 1 4 0Zm-9.98-3a2 2 0 1 0 0-4 2 2 0 0 0 0 4Zm17.95-2a2 2 0 1 1-4 0 2 2 0 0 1 4 0Z"/>
  </symbol>

  <symbol id="icon__gift"
    fill="#81B3D2"
    viewBox="0 0 80 80">
    <path d="M69.2 25.12H44.8c13.6-6.8 14.7-11.1 14.2-13.5-1.1-3.9-5.6-6.9-9.8-5.3-5.5 2.1-7 10.3-8.5 16.2-1.9-6-3.7-13.6-8-17.5-1.2-1.1-3-2.2-5.7-2-4 .4-9.7 5.3-7.3 10.8 2.2 5.3 9.5 8.7 14.4 11.4H11.8a2.8 2.8 0 0 0-2.8 2.8v11.2c0 1.6 1.3 2.8 2.8 2.8h.3V78h57V42.01h.1c1.6 0 2.8-1.3 2.8-2.8v-11.2c0-1.6-1.3-2.9-2.8-2.9ZM50.8 8.82c2.1-.3 4.9 1.3 5.2 3.2.4 2.7-3.3 5.2-5 6.3-2.5 1.7-4.9 2.6-7.2 4 .8-3.7 2.5-12.9 7-13.5Zm-22.6 9.8c-2.2-1.5-6.4-4.4-6.3-7.7.1-3.6 5.7-6.5 8.7-3.8 3.8 3.3 5.6 11 7 16.4-3.2-1.6-6.2-2.8-9.4-4.9ZM34.1 75H15V42.01h19.1v33Zm0-35.99H12v-10.9h22.1v10.9Zm10 36H37V28.1h7.1v46.9Zm22 0h-19V42h19.1v33h-.1ZM69 39H47.1v-10.9H69v10.9Z"/>
  </symbol>

  <symbol id="icon__home"
    fill="#81B3D2"
    viewBox="0 0 80 80">
    <path d="M75.9 43.18 78 41.1l-9.94-9.84V4.4H54.2v13.12L40.45 4 3 41.2l2.1 2.08 7.84-7.76v37.6H9.02V76h64.16v-2.88h-5.12v-37.7l7.83 7.76ZM57.11 7.38h7.93v20.98l-7.93-7.85V7.38Zm7.93 65.64h-49.1V32.54l24.5-24.36 24.6 24.36v40.48Zm-31.93-4.48h16.06V44.77H33.12v23.77Zm13.05-2.88H36.03v-18h10.14v18ZM40.85 39.3a7.78 7.78 0 0 1-7.73-7.75 7.63 7.63 0 0 1 7.73-7.66 7.72 7.72 0 0 1 7.83 7.66 7.8 7.8 0 0 1-7.83 7.75Zm5.02-7.75a5.01 5.01 0 0 0-10.04 0 5.01 5.01 0 0 0 10.04 0ZM23.08 44.77h-3.01v3.88h3.01v-3.88Zm3.01 0h3.01v3.88h-3v-3.88Zm-3.01 5.97h-3.01v3.88h3.01v-3.88Zm3.01 0h3.01v3.88h-3v-3.88Zm29.12-5.97H52.2v3.88h3v-3.88Zm3.01 0h3.01v3.88h-3v-3.88Zm-3.01 5.97H52.2v3.88h3v-3.88Zm3.01 0h3.01v3.88h-3v-3.88Z"/>
  </symbol>


  <symbol id="icon__like"
    width="23"
    height="21"
    fill="currentColor"
    viewBox="0 0 23 21">
    <path d="m12.96 3.78-.62 3.05-.63 2.62h9.09v2.2l-3.03 7.25h-9.4V8.4l4.6-4.62ZM2.1 10.5v8.4-8.4ZM13.8 0 6.9 6.93c-.42.32-.63.84-.63 1.47v10.5c0 1.16.94 2.1 2.1 2.1h9.4c.84 0 1.57-.52 1.88-1.26l3.14-7.45c.1-.21.1-.53.1-.74v-2.1H23a2.1 2.1 0 0 0-2.1-2.1h-6.58l1.05-4.83v-.31c0-.43-.21-.84-.42-1.16L13.8 0ZM4.18 8.4H0V21h4.18V8.4Z"/>
  </symbol>

  <symbol id="icon__mail"
  width="16"
  height="12"
  fill="none"
  viewBox="0 0 16 12">
  <path fill="#000" d="M8 8c-.3 0-.5-.1-1-.3L0 4v7c0 .5.5 1 1 1h14c.5 0 1-.5 1-1V4L9 7.7c-.5.2-.7.3-1 .3Zm7-8H1C.5 0 0 .5 0 1v.8L8 6l8-4.2V1c0-.5-.5-1-1-1Z"/>
  </symbol>

  <symbol id="icon__phone"
  width="18"
  height="18"
  fill="none"
  viewBox="0 0 18 18">
  <path fill="#010101" d="M3.6 7.8c1.4 2.8 3.8 5.1 6.6 6.6l2.2-2.2c.3-.3.7-.4 1-.2 1.1.4 2.3.6 3.6.6.6 0 1 .4 1 1V17c0 .6-.4 1-1 1A17 17 0 0 1 0 1c0-.6.4-1 1-1h3.5c.6 0 1 .4 1 1 0 1.2.2 2.4.6 3.6.1.3 0 .7-.2 1L3.6 7.8Z"/>
  </symbol>


  <symbol id="logo__htmlacademy"
    width="27"
    height="35"
    fill="currentColor"
    viewBox="0 0 27 35">
    <path d="M13.6 0h-.1L0 1.4v24.7l13.5 8 13.4-8V1.4L13.6 0ZM25 12.1 13.5 5.3v-.1h-.1l-.1-.1v.1L1.9 12.1v-9l11.5-1.2L25 3.1v9ZM13.4 6.8l11.5 6.7-4.5 2.6-7.1-4.2v1.4l5.9 3.5-.9.5-5-3v1.4l3.8 2.3-.8.5-3-1.8v1.4l1.9 1.1-1.8 1.1L2 13.6l11.4-6.8ZM1.9 15.1l11.4 6.8v1l-7.9-4.7v1.4l8 4.8v1.1l-8-4.7v1.4l8 4.8 8.1-4.9v-5.2l3.4-2v10l-11.5 6.9L1.9 25v-9.9Z"/>
  </symbol>

  <symbol id="logo__sedona"
  width="185"
  height="96"
  fill="none"
  viewBox="0 0 185 96">
  <path fill="#81B3D3" d="M185 0H0l79.81 90.1c7.04 7.87 18.44 7.87 25.48 0L185 0Z"/><path fill="#23A9E1" d="M42.83.7 92 58.84 140.88 1.1 42.83.7Z"/><path fill="#fff" d="M120.95 17.22c-5.05 0-10 .1-15.07.1 5.95-6.87 8.63-6.17 15.07-.1ZM80.1 22.6h26.48c-1.98-1.2-6.64-7.07-9.22-4.88-.2.2-7.44-8.86-12.2-4.48-4.16 3.78-6.04-.5-10.8 2.49-5.26 3.58 3.17 5.68 5.75 6.87Z"/><path fill="#491213" d="M92.3 0H41.84v22.4L92 83.63l.3-.4 50.27-60.13V0H92.3ZM54.43 1.8h5.45v17.12l-5.45-6.48V1.8Zm-.8 9.75-4.95-5.88V1.8h4.96v9.76Zm19.14-2.69L67.12 1.8h5.65v7.07Zm-6.54 3.78L60.68 1.8h5.55v10.85ZM60.58 3.4l5.45 10.65a39.17 39.17 0 0 0-5.45 4.88V3.39Zm6.44-.5 5.55 6.87a41.79 41.79 0 0 0-5.55 3.68V2.89Zm6.54-.2 4.76 4.18c-1.68.7-3.27 1.5-4.76 2.29V2.69Zm5.56 3.88L73.76 1.8h5.95v4.58c-.3 0-.4.1-.6.2ZM98.05 1.8h4.96l-4.96 2.4v-2.4Zm-5.75 0h4.36L92.3 3.9v-2.1Zm-.9 2-4.15-2h4.16v2Zm-5.44.5-5.06-2.5h5.06v2.5Zm-5.56-1.9 4.66 2.29c-1.58.4-3.17.8-4.66 1.3v-3.6Zm6.35 0 3.37 1.6c-1.19.1-2.28.2-3.47.4v-2h.1Zm10.31.1v1.9c-1.09-.2-2.18-.3-3.37-.4l3.37-1.5Zm6.44-.1v3.68c-1.48-.5-3.07-1-4.75-1.4l4.75-2.28Zm.7-.6h5.85l-5.36 4.78c-.2-.1-.3-.1-.5-.2V1.8Zm13.48 0h5.55l-5.55 10.85V1.8Zm-6.54 0h5.65l-5.65 6.97V1.8Zm-.8.9v6.47a53.1 53.1 0 0 0-4.75-2.29l4.76-4.18Zm6.55.2v10.45c-.7-.5-1.49-1-2.28-1.6-1-.69-2.18-1.39-3.37-2.08l5.65-6.77Zm6.34.5v15.13c-1.09-1-2.87-2.69-5.45-4.58l5.45-10.55Zm.8 15.92V1.8h5.45v11.35l-5.45 6.17c0 .1.1.1 0 0Zm6.24-17.52h4.96v4.68l-4.96 5.78V1.79Zm-82.29 0v2.89l-2.47-2.89h2.48Zm12.7 18.12.1.1s3.56-3.88 9.12-7.57C75.15 8.96 83.08 4.88 92 4.98c8.83 0 16.96 4.18 22.11 7.66 5.56 3.69 9.22 7.47 9.32 7.57l-3.86 4.48c-6.84.9-11.8 6.07-18.44 4.98-3.38-.6-3.47-2.49-4.47-4.48-.69-1.5-1.88-1.3-3.47-1.9-1.38-.59-2.28-1.69-5.15-1.09-2.48.6-2.78 4.48-5.95 4.28-1.69-.1-1.78-2.49-4.16-5.47-6.25-7.57-12.1-6.47-16.07.5l30.05 35.74L60.68 19.9Zm75.24-14.43V1.79h3.18l-3.18 3.69Z"/><path fill="#23A9E1" d="M87.94 70.59 92 64.12l3.97 6.47L92 77.06l-4.06-6.47Z"/><path fill="#fff" d="M64.94 32.16c.5.6.9 1.3.8 2.09-.1.6-.9 1.6-.3 1.79.69-.9 1.48-1.9 2.18-2.79-.6-.2-5.36-5.77-5.36-6.47-1.09.6-2.08 1.2-3.17 1.7.2.7 1.29 0 1.88 0 .8.1 1.4.6 1.99 1.19-1.69 1.4-5.85 4.98-6.35 5.08-.2 0-1.09-.6-1.09-.1 0 .3.9 1 1 1.2.69.89 1.48 1.78 2.17 2.68.6-.3-.1-.7.2-1.2.3-.4 4.86-4.28 6.05-5.17ZM59.68 25.19c.4-.1.6.4 1-.1-.8-1-1.6-1.9-2.38-2.89-.4-.4-.8-.9-.7 0 .1.6-6.05 5.68-6.44 5.78-.5.2-.8-.4-1.1.1.7.9 1.5 1.69 2.19 2.58.2.3.5.6.7.9.29.3.2-.7.2-.6-.1-.5.49-.9.88-1.2 1.49-1.29 5.26-4.57 5.65-4.57ZM50.96 24.3c-1.79.49-3.67-.2-4.16-2-.5-1.8.59-3.78 2.08-4.78 1.39-1 3.57-1 4.36.8.3.8.2 1.7-.1 2.49-.2.5-.6 1 .1 1.3.9-1.1 1.68-2.2 2.58-3.3-1.1-.6-1.49-1.69-2.28-2.58-.9-1.1-2.09-2.1-3.47-2.3-2.88-.39-5.55 2.6-5.75 5.19a6.3 6.3 0 0 0 1.19 3.98c.79 1 1.88 1.6 2.38 2.79.3.1 2.67-1 3.27-1.3-.1-.1-.1-.2-.2-.3 0 0-.7.2 0 0ZM89.92 60.53c-1.19-.8-3.96-4.68-4.56-5.27-.1-.1-.2-.3-.3-.4 0 0-.3.2-.2.2-.2.1.1.6-.1.9-.79 1.19-5.74 4.97-5.94 5.17-.6.4-1.2-.2-1.49.3.7.9 2.78 3.48 2.98 3.58.5.1.1-.8.2-1 .1-.4 2.57-2.38 3.46-3.18.3-.3.7.4.9.7.3.5.5 1 .3 1.6-.1.39-.7.89-.3 1.19.6-.7 2.38-2.8 2.57-3 .3-.29-.6 0-.5-.1-.39.2-.69.2-1.08 0-.1-.1-1.1-1.09-1-1.19.4-.4 1-1 1.5-1.1.89-.19 1.58 1.5 1.68 2.1.1.6.1 1.2-.1 1.8-.1.39-.5.69 0 .89.7-1 1.39-1.9 2.08-2.89.2-.2 0-.3-.1-.3.2 0-.1-.1 0 0ZM79.81 56.35a5.32 5.32 0 0 0 .8-7.27c-1.9-2.49-5.36-3.08-7.74-1.1a5.31 5.31 0 0 0-.8 7.28c1.99 2.68 5.16 2.98 7.74 1.09-.1.1 1.19-.9 0 0Zm-.5-4.68a7.36 7.36 0 0 1-3.66 3.68c-1.79.7-3.08-.8-2.38-2.58a7.77 7.77 0 0 1 3.66-3.69c1.89-.7 3.08.9 2.38 2.6.1-.2-.4.89 0 0ZM73.46 41.81c.5.1.9.5 1.3 0-.7-.9-1.5-1.79-2.19-2.58-.6.3 0 .5-.2 1-.2.39-2.57.79-3.17.89.2-.6.9-2.6 1.2-2.79.49-.4.88.4 1.28-.1L69 34.95c-.3-.4-.6-1-.99-.7 0 0 0 1.5-.1 1.7-.1.19-.89 3.57-1.88 4.47-.5.4-2.18 1.9-2.68 2.1-.5.2-.8-.6-1.19 0 .8.99 1.69 1.98 2.48 2.98.1.1.6.9.8.9.49.1.1-.9.1-1.1.2-.4 2.47-2.69 3.46-2.89 1.2-.2 2.98-.7 4.46-.6-.4 0 .3.1 0 0Z"/><path fill="#DC6243" d="M67.22 22.8c-3.97-.2-2.38-3.98.4-4.78 2.57-.8 8.03 1.7 9.71 3.39-2.77.9-6.34.7-9.32.9-.2-3.2-.99-2.1-.8.49ZM76.64 35.24c-8.53-.1-2.78-13.24.1-12.44 3.37 1.1 2.97 12.54-.1 12.44ZM82.69 30.96c-.8 2.5-2.38 2.99-2.19-.1.2-3.48 2.48-2.68 4.86-3.98 1.98-1.1 3.08-5.18 6.55-2.79 1.58 1.1 3.37.2 3.86 1.8 0-.1-4.46 10.25-1.98 10.25-4.96 0-2.78-5.87-.9-9.86-1.78.9-4.75 6.67-2.37 7.57-1.3 1.7-5.16 3.88-7.14 2.29-1.49-1.1-.7-3.19-.7-5.18ZM86.75 40.52c-3.47 1-8.03-1.2-2.48-2.29 3.47-.7 7.14.7 2.48 2.3-.1 0 .1 0 0 0ZM91.11 40.42c-.7-1.7.6-3.58 2.68-2.19 1.78 1.2-.9 3.09-2.68 2.2ZM88.14 45c-2.38-.7-10.41-.6-5.16-2.79 1.69-.6 10.11.2 5.16 2.8ZM98.55 48.29c-1.39-1.2-2.88-1.3-4.17 0-1.78-3.29-8.22-2.2-11.3-2.7 1.59 4.09 14.67 4.89 15.47 2.7ZM96.66 50.78c-3.17-.1-6.64-.6-9.51.1 1.88.5 6.34 1.79 2.18 2.88 1.48 2.2 3.96 2 5.55.1-.7-.3-1-.7-1.59-1.1 1.59-.3 3.18-1.19 3.37-1.98ZM100.23 46.9c-5.25-3.1-3.96-5.38.4-7.57 2.28-1.1 7.24-5.18 9.32-3.89-3.27 3.89-6.54 7.67-9.72 11.45Z"/><path fill="#F49774" d="M96.47 39.62c-4.47-4.58 6.64-4.18 8.42-5.77 1.3.4 10.71-8.26 12.99-7.67-1.69 1.9-5.16 8.07-7.73 8.07-1.99 0-3.97-.3-5.46 1.1-2.18 2.08-5.84 3.08-8.22 4.27Z"/><path fill="#F4B1A4" d="M97.95 34.05c-2.48 1.3-4.76-3.88-.5-3.39 2.78.3 5.66-.2 8.24.2-1.99 2.3-4.66 3.59-7.74 3.19Z"/><path fill="#fff" d="M110.44 52.27c.2.6.3 1.3.2 1.99-.1.9-.99 2.89-2.18 2.29-1.19-.6-2.18-1.7-3.17-2.59.8-.9 1.49-1.7 2.87-1.3.4.1.7 0 .3-.3-.4-.2-3.07-1.98-3.27-1.78-.3.3.5.9.2 1.49-.2.4-.6.8-.9 1.2-.69-.6-1.88-1.3-1.08-2.3.5-.7 1.28-1.19 2.08-1.29.6-.1 1.78.4 1.98-.2-1.09-.5-2.18-1-3.27-1.6.2.8-3.27 4.49-4.07 5.48-.1.1-.69.6-.69.8 0 .4.6.1.7.1.49-.2 6.74 5.08 6.93 5.48.1.3-.2.6 0 .7 0 0 .2.2.3.2.4-.5 4.46-5.98 5.35-6.18-.79-1.2-1.58-2.4-2.37-3.68-.6.3 0 1 .1 1.49ZM104.3 58.94c-2.08-1.3-5.55 1.3-6.05 1.5-1 .49-1.78-.5-1.29-1.5a3 3 0 0 1 2.28-1.3c.3 0 1.3.2 1.49 0 .1-.2.2-.2 0-.3-.9-.6-1.69-1.19-2.58-1.69-.2 1.1-1.39 1.7-2.08 2.4-.8.89-1.49 1.88-1.49 3.18 0 1.1.7 2.09 1.69 2.69 1.09.6 2.28.1 3.27-.5.6-.4 1.29-.9 1.88-1.2 1-.5 2.28-.1 1.99 1.3a3.44 3.44 0 0 1-2.38 2.29c-.6.2-1.3.1-1.89-.1-.4-.1-.99-.7-1.19-.1 1.2.8 2.28 1.7 3.47 2.49.1-.8.5-1.1 1.1-1.6.69-.6 1.38-1.29 1.98-2.09 1.19-1.69 1.58-4.08-.2-5.47ZM104.3 58.94c.99.6-.6-.5 0 0ZM140.68 19.51c-.7.7-8.33-2.29-8.92-2.78-.3-.1-.3-1.3-.7-.8l-1.18 1.5c-.4.5-.8.99-1.3 1.49-.29.3-.49.5 0 .7.8-.4 5.36 7.26 4.96 8.46-.69.4-6.84-5.08-7.03-5.38-.1-.1.3-1-.2-.9-.2 0-.7.9-.9 1.1-.3.4-.59.7-.89 1.1.3.5.5 0 1 0 .4.1 1.78 1.29 2.18 1.69-.7 0-2.68.1-2.88.1-.9.1-.4-.7-1-.9-.78.9-1.48 1.8-2.27 2.79l-1.29 1.59c-.1.1 0 0 0 .1.3.3.1.2.6 0 .49-.2 6.54 4.88 6.74 5.18.4.4-.2 1 .4 1.2.59-.7 1.18-1.5 1.78-2.2.1-.1.1-.1 0-.2-.4-.4-.5.2-1 .2-.49-.1-4.36-3.38-5.84-4.58 1.78-.1 7.23-.3 8.13-.3.3 0 1.09.9 1.09 1.2-.1.4-.5.6.1.8.5-.6.99-1.1 1.48-1.7l.2-.3c.1-.1.1-.1.2-.3l.2-.2c.4-.5 1.78-1.99 1.58-2.09-.5-.4-.69.5-1.28-.1-.3-.2-1.2-1.79-1.4-2.19-.29-.4.6-.9 1-1.09.8-.5 3.17-1.2 3.47.3 0 .3-.3.5-.1.7 0 0 .2.2.3.2.2-.2 2.38-2.8 3.27-3.99-.3-.2-.4-.3-.5-.4Zm-7.33 2.2c.1 0 .2-.1 0 0-.3.2-.7.5-1 .79-.49-.9-.99-1.8-1.58-2.69 1.19.5 2.38 1 3.47 1.5-.2.1-.5.2-.9.4ZM123.73 32.85c-2.38-1.99-5.55-1.39-7.54.8a5.38 5.38 0 0 0 .6 7.57c2.28 1.89 5.65 1.4 7.53-.8 1.89-2.29 1.79-5.67-.59-7.57Zm-.3 6.58s0 .1 0 0c-1.29 1.29-3.37.1-4.46-.7-1.09-.8-3.07-2.59-1.88-4.08 1.09-1.3 3.07-.2 4.16.5 1.2.8 3.37 2.58 2.28 4.18l-.1.1Z"/><path fill="#fff" d="M123.73 32.85c1.19 1-.3-.2 0 0ZM123.43 39.53c0-.1 0-.1 0 0l.1-.1c-.1 0-.1.1-.1.1ZM117.19 41.91c.1.1.3.3 0 0-2.88-2.19-6.25-1.59-8.43 1.1l-2.98 3.58c.4.5.8-.1 1.3.2.4.3 6.14 5.08 6.24 5.38.2.5-.3.5.1.9.2.1 4.46-5.18 4.86-6.18.89-1.79.3-3.68-1.1-4.98Zm-1.3 6.77c-.2.3 0 .1-.69.7-.3.3-6.34-4.68-6.14-4.88.79-.9 2.58-1.59 3.57-1.3 2.18.5 5.15 3.2 3.27 5.48Z"/>
  </symbol>


  <symbol id="title-sedona"
    width="229"
    height="39"
    fill="none"
    viewBox="0 0 229 39">
    <path fill="#fff" d="M27.32 26.64c0 .25-.05.45-.05.65-.26 2.01-.9 3.97-1.96 5.78a11.46 11.46 0 0 1-4.26 4.22c-.65.3-1.35.55-2.05.8-.7.2-1.4.4-2.1.56-.61.1-1.16.2-1.76.25-.6.05-1.16.1-1.7.1h-.6c-2.31-.1-4.62-.6-6.88-1.56-2.2-1-4.2-2.26-5.96-3.87l4.66-7.49.1.1.1.1a24.24 24.24 0 0 0 3.56 3.22c1.3.96 2.86 1.5 4.56 1.61.05 0 .1 0 .15.05.05 0 .1.05.15.05.05 0 .1 0 .15.05.05 0 .1.05.15.05.15 0 .3 0 .5-.05.15 0 .35-.05.5-.1a4.77 4.77 0 0 0 3.06-2.01c.05-.1.1-.15.1-.25.05-.1.1-.15.1-.25.1-.25.15-.5.15-.76.05-.25.05-.45.05-.65 0-1.06-.45-1.96-1.35-2.66-.9-.7-1.9-1.26-2.96-1.66-.45-.15-.85-.3-1.2-.4-.4-.1-.75-.2-1.1-.26-.05 0-.1 0-.1-.05-.05 0-.1-.05-.1-.05-1.9-.45-3.71-1.2-5.37-2.26a8.17 8.17 0 0 1-3.75-5.68c-.1-.45-.16-.85-.2-1.35-.06-.15-.06-.3-.06-.46v-.45c0-.3 0-.6.05-.95 0-.3.05-.6.15-.96.1-.75.3-1.56.6-2.31.26-.75.6-1.46 1.06-2.11A10.98 10.98 0 0 1 8.52 1.2C10.37.45 12.43 0 14.53 0c.5 0 1 .05 1.56.1.5.05 1.05.15 1.6.2 1.4.25 2.8.6 4.16 1.16 1.36.55 2.66 1.2 3.81 1.9l-3.2 7.2a28 28 0 0 0-3.31-2.07 7.95 7.95 0 0 0-3.76-.85h-.5c-.9.1-1.7.5-2.51 1.2-.75.7-1.15 1.41-1.15 2.22 0 .1 0 .25.05.35 0 .1.05.25.15.35.1.25.2.5.4.75.2.26.4.46.65.66.45.35 1.05.65 1.85.95.8.3 1.66.56 2.56.86.75.2 1.45.4 2.16.55.7.15 1.3.35 1.75.5a9.08 9.08 0 0 1 4.91 3.87c1.1 1.81 1.66 3.72 1.7 5.73v.25c-.04.25-.04.5-.1.76Zm30.07 3.11v8.35H34.63V.9H57.4v8.15H44.6v6.48h12.03v7.94H44.6v6.28h12.78Zm38.39-1.45a15.79 15.79 0 0 1-5.16 6.28 16.31 16.31 0 0 1-5.92 2.56c-2.15.45-4.3.75-6.46.85-.6.06-1.26.06-1.86.06H64.45V.85h12.58a36.98 36.98 0 0 1 7.97.9c2.06.46 3.91 1.32 5.62 2.57a15.28 15.28 0 0 1 5.06 6.03c1.2 2.52 1.9 5.08 2.05 7.7.05.24.05.44.05.7v1.5c-.15 2.82-.8 5.48-2 8.05Zm-8.22-9.2c0-.15 0-.3-.05-.45-.1-1.46-.45-2.92-1.05-4.28a8.44 8.44 0 0 0-2.56-3.31c-.8-.66-1.7-1.1-2.7-1.36-1-.25-2.01-.35-3.06-.4h-3.76v20.5c.1 0 .25 0 .4.05.15 0 .25.05.4.05.15 0 .3 0 .4.05.1 0 .25.05.35.05.4 0 .8 0 1.2-.05.46 0 .86-.05 1.2-.1 1.01-.1 2.01-.25 2.97-.5.95-.25 1.85-.7 2.6-1.2a7.85 7.85 0 0 0 2.76-3.67c.6-1.56.9-3.17.9-4.83v-.55Zm54.93 1.96c0 .4-.05.8-.15 1.2-.1.8-.2 1.61-.45 2.42a18.88 18.88 0 0 1-8.42 11.16 20.93 20.93 0 0 1-10.88 3.11c-.25 0-.55 0-.8-.05-.25 0-.5-.05-.8-.05a21.3 21.3 0 0 1-7.67-2.16 18.93 18.93 0 0 1-7.67-7.34 19.39 19.39 0 0 1-2.8-9.9c0-.5 0-1 .05-1.5.05-.51.1-1.06.25-1.57.2-1 .45-2 .8-3.06.35-1 .75-2.01 1.3-2.97a18.44 18.44 0 0 1 7.47-7.59A20.26 20.26 0 0 1 124.1.2c.5.05.95.1 1.4.1a21.14 21.14 0 0 1 8.32 3.02 18.33 18.33 0 0 1 6.42 7.13 20.36 20.36 0 0 1 2.25 9.3v1.3Zm-10.12-2.11c0-.25-.05-.46-.05-.7-.2-1.66-.7-3.27-1.5-4.83a9 9 0 0 0-3.36-3.62c-.4-.2-.76-.35-1.16-.5-.4-.15-.75-.3-1.15-.4-.4-.1-.75-.16-1.15-.2a8.87 8.87 0 0 0-6.62 1.76 9.88 9.88 0 0 0-3.5 4.97c-.06.1-.06.15-.1.25 0 .1-.06.15-.06.25l-.3 1.06c-.1.35-.15.75-.25 1.15-.05.25-.05.56-.1.8 0 .26-.05.51-.05.81v.45c0 .15 0 .3.05.46.1 2.06.75 4.02 1.9 5.88a8.08 8.08 0 0 0 4.77 3.66c.25.1.45.16.7.2l.75.16c.25.05.45.05.7.1.25 0 .45.05.7.05 2.06 0 3.91-.6 5.57-1.86a9.9 9.9 0 0 0 3.86-6.13c.1-.46.15-.86.2-1.31.05-.25.05-.55.1-.8 0-.26.05-.5.05-.76v-.9Zm43.85 19.15-14.08-19.2c-.4-.46-.75-1-1.1-1.66-.35-.65-.7-1.3-1-2.01-.26-.5-.46-1-.66-1.51a18 18 0 0 0-.6-1.36 42.83 42.83 0 0 1 .6 7.4V38.1h-9.77V.9h9.77L173.37 20c.35.56.7 1.1 1 1.71.35.6.65 1.2.95 1.86.25.5.45 1 .7 1.5.25.51.45 1.01.7 1.47l-.15-1.21-.15-1.2a18.2 18.2 0 0 1-.15-2.42c-.05-.8-.05-1.66-.05-2.51V.95h9.73v37.2h-9.73v-.05Zm42.66 0-1.86-6.69H202.7l-1.9 6.74h-10.03L203.49.95h12.63L229 38.15h-10.12v-.05ZM211.1 11.9c-.2-.6-.4-1.2-.55-1.86l-.46-1.9c-.1-.26-.15-.46-.15-.66-.05-.2-.1-.4-.1-.6l-.15.6-.15.65c-.05.1-.05.15-.05.2 0 .05 0 .15-.05.2-.1.6-.25 1.16-.4 1.71l-.45 1.66-3.76 12.31h10.08l-3.81-12.3Z"/>
  </symbol>

  <symbol id="title-welcome"
    width="282"
    height="214"
    fill="none"
    viewBox="0 0 282 214">
    <path fill="#766458" d="m101.39 42.8-.13.13a3.83 3.83 0 0 1-2.76 1.34l1.72-3c1.1-1.89.06-3.72-1.66-3.72-1.41 0-2.51.55-3.56 2.38l-.92 1.59-.73 1.28-.13.13c-1.35 1.53-2.64 2.75-3.43 2.75-.43 0-.62-.3-.19-.98l3.93-6.85H95l.55-.85h-1.53l1.72-3H93.9l-1.72 3h-1.66l-.55.85h1.66l-3.69 6.36c-.8 1.35-.24 2.63 1.23 2.63 1.05 0 2.27-.8 3.38-1.9 0 2.33 3.25 2.82 5.21.31h.43c1.1 0 2.83-.67 3.75-1.77 0-.3-.31-.55-.55-.68Zm-3.93.13h-.06a1.1 1.1 0 0 0-.92 1.7v.07c-.86 1.47-2.95 1.22-1.9-.73l1.4-2.39.86-1.47c1.3-2.2 3.07-1.34 1.97.55l-1.35 2.27ZM126.85 42.8l-.12.13c-1.35 1.53-3 2.75-4.3 2.75-1.1 0-1.77-.74-.98-2.2l.19-.3c1.16.48 3.43.24 4.78-2.15l.25-.43c.98-1.7.06-2.93-1.47-2.93-1.48 0-2.64.8-3.44 2.14l-1.78 3.06-.12.12c-1.35 1.53-2.64 2.75-3.44 2.75-.43 0-.61-.3-.18-.98l2.64-4.65c.8-1.4.06-2.38-.99-2.38-.8 0-1.65.43-2.57 1.4l2.94-5.07h-1.84l-5.1 8.74-.12.13c-1.35 1.53-2.64 2.75-3.43 2.75-.43 0-.62-.3-.19-.98l3.93-6.85h1.47l.56-.86H112l1.72-3h-1.84l-1.72 3h-1.66l-.55.86h1.66l-3.68 6.36c-.8 1.35-.25 2.63 1.22 2.63.74 0 1.54-.37 2.34-.98l-.5.8h1.85l2.76-4.83c2.82-3.55 4.05-3.06 3.31-1.72l-2.4 4.16c-.79 1.35-.24 2.63 1.24 2.63 1.1 0 2.33-.85 3.43-1.96.06 1.17 1.05 1.96 2.52 1.96 2.08 0 4.17-1.59 5.64-3.36.07-.37-.24-.61-.49-.74Zm-3.5-2.56c1.05-1.84 2.95-1.53 1.85.36l-.25.43c-.86 1.47-2.09 1.47-2.76 1.22l1.17-2.01ZM193.81 42.8l-.12.13c-.68.8-1.48 1.46-2.21 2.01.61-1.77.43-4.4 1.6-6.78l-1.36-.74c-.73 1.04-2.39 3.43-4.1 5.38l-.13.13c-1.35 1.53-2.64 2.75-3.44 2.75-.43 0-.61-.3-.18-.98l3.92-6.85h-1.84l-3.25 5.69c-1.41 1.28-2.45 1.95-2.82 1.83-.43-.18 0-.85.24-1.28l3.56-6.24h-1.84l-2.88 4.95-.13.13a3.83 3.83 0 0 1-2.76 1.34l1.72-3c1.1-1.89.06-3.72-1.66-3.72-1.4 0-2.51.55-3.56 2.38l-.91 1.59-.74 1.28-.12.13c-1.36 1.53-3.01 2.75-4.3 2.75-1.1 0-1.78-.74-.98-2.2l.18-.3c1.17.48 3.44.24 4.79-2.15l.24-.43c.99-1.7.07-2.93-1.47-2.93-1.47 0-2.64.8-3.44 2.14l-1.78 3.06-.12.12c-1.53 1.77-2.82 2.87-4.3 3.48l4.12-7.03h-1.1c0-.73-.8-1.77-1.9-1.77-1 0-2.4.8-3.14 2.14l-1.78 3.06-.12.12c-1.35 1.53-2.64 2.75-3.44 2.75-.43 0-.61-.3-.18-.98l1.84-3.18c.61-1.1.3-1.77-.25-2.5l-1.04-1.23c-.25-.3-.25-.73.12-1.04l-.98-1.04c-1.04.92-1.1 1.96-.49 2.82l.18.18a45.9 45.9 0 0 1-3.13 4.1l-.12.12a3.83 3.83 0 0 1-2.76 1.34l1.72-3c1.1-1.89.06-3.72-1.66-3.72-1.41 0-2.52.55-3.56 2.38l-.92 1.6-.74 1.28-.12.12c-1.53 1.77-2.82 2.87-4.3 3.48l4.12-7.03h-1.1c0-.73-.8-1.77-1.91-1.77-.98 0-2.4.8-3.13 2.14l-2.58 4.46c-.8 1.35-.24 2.63 1.23 2.63.5 0 1.1-.24 1.78-.61l-.5.86c-2.45.73-4.04 1.77-4.04 3.11 0 1.78 2.7 2.14 4.05-.12l1.41-2.38a11.4 11.4 0 0 0 4.42-2.75c0 2.32 3.25 2.8 5.22.3h.42c1.11 0 2.83-.67 3.75-1.77.86-1.04 1.6-1.96 3.07-3.92l.24.31c.25.3.31.67.13 1.04l-1.97 3.36c-.8 1.35-.24 2.63 1.23 2.63.92 0 1.96-.6 2.94-1.47 0 .86.56 1.47 1.6 1.47.5 0 1.1-.24 1.78-.6l-.43.72c-2.45.74-4.05 1.78-4.05 3.12 0 1.78 2.7 2.14 4.05-.12l1.41-2.38a11.79 11.79 0 0 0 4.48-2.82c.06 1.17.98 1.96 2.52 1.96 1.47 0 3-.86 4.23-1.96-.06 2.39 3.26 2.88 5.22.37h.43a4.6 4.6 0 0 0 2.03-.55c-.5 1.28-.07 2.14.98 2.14.98 0 2.14-.92 3-1.77-.18.98.43 1.77 1.6 1.77 1.53 0 3.25-1.59 4.79-3.36 1.04-1.23 1.96-2.51 2.64-3.37-.74 1.9-.31 5.32-2.1 5.32-.6 0-.85-.67-.85-.67l-1.17.61s.31 1.47 2.03 1.47c.18 0 .3 0 .49-.06h.06c1.9-.25 3.75-1.71 5.1-3.3a.94.94 0 0 0-.68-.68Zm-26.33-2.56c1.05-1.84 2.95-1.53 1.84.36l-.24.43c-.86 1.47-2.09 1.47-2.77 1.22l1.17-2.01Zm-35.1 9.54c-.37.67-.98.6-.98.06 0-.5.42-1.04 1.84-1.6l-.86 1.54Zm.86-4.1c-.43 0-.62-.3-.19-.98l2.58-4.46c.98-1.72 2.95-1.29 2.03.36l-1.42 2.45c-1.1 1.77-2.27 2.63-3 2.63Zm11.29-2.75h-.06a1.1 1.1 0 0 0-.92 1.7v.07c-.86 1.47-2.95 1.22-1.9-.73l1.4-2.39.86-1.47c1.3-2.2 3.07-1.34 1.97.55l-1.35 2.27Zm11.54 6.85c-.37.67-.98.6-.98.06 0-.5.42-1.04 1.84-1.6l-.86 1.54Zm.86-4.1c-.43 0-.62-.3-.19-.98l2.58-4.46c.98-1.72 2.94-1.29 2.02.36l-1.4 2.45c-1.11 1.77-2.28 2.63-3.01 2.63Zm18.1-2.75h-.06a1.1 1.1 0 0 0-.92 1.7v.07c-.86 1.47-2.95 1.22-1.9-.73l1.4-2.39.87-1.47c1.29-2.2 3.07-1.34 1.96.55l-1.35 2.27ZM79.84 40.85H62.11v1.22h17.73v-1.22ZM219.16 40.85h-17.74v1.22h17.74v-1.22Z"/><path fill="#81B3D3" d="M100.03 0h4.73l-.74 27.46h-8.9L93.9 16.14l-1.23 11.32h-8.96L83.04 0h4.66l.37 22.75h.49l3-22.75h4.67l3 22.75h.5l.3-22.75ZM119.55 22.75v4.77h-12.83V0h12.83v4.7h-8.16v6.61h6.5v4.71h-6.5v6.67h8.16v.06ZM132.68 22.75v4.77h-11.23V0h4.67v22.75h6.56ZM142.63 17.37l4.72-1.1v8.31a2.92 2.92 0 0 1-2.88 2.88h-7.06a2.92 2.92 0 0 1-2.88-2.88V2.88A2.88 2.88 0 0 1 137.4 0h7.06a2.92 2.92 0 0 1 2.88 2.87v5.57l-4.72 1.1v-4.9h-3.38V22.7h3.38v-5.32ZM160.12 0A2.92 2.92 0 0 1 163 2.87v21.65a2.92 2.92 0 0 1-2.88 2.87h-7.06a2.92 2.92 0 0 1-2.88-2.87V2.87A2.88 2.88 0 0 1 153.06 0h7.06Zm-1.84 4.7h-3.38v18.05h3.38V4.7ZM178.34 0h4.67v27.46h-4.67V13.94l-1.9 6.97h-4.6L170 13.94v13.52h-4.67V0H170l4.17 13.27L178.34 0ZM198.17 22.75v4.77h-12.83V0h12.83v4.7H190v6.61h6.5v4.71h-6.5v6.67h8.16v.06Z"/><path fill="#fff" d="M27.19 96.37a12.52 12.52 0 0 0-7.92-3.06c-2.2 0-5.1 1.29-5.1 3.86 0 2.69 3.26 3.73 5.28 4.34l3.07.92c6.39 1.9 11.36 5.07 11.36 12.47 0 4.52-1.1 9.23-4.73 12.3-3.62 3.05-8.4 4.27-13 4.27A28.64 28.64 0 0 1 0 126.27l4.97-9.47c3 2.63 6.5 4.7 10.62 4.7 2.82 0 5.77-1.4 5.77-4.58 0-3.36-4.67-4.47-7.24-5.2-7.5-2.2-12.4-4.1-12.4-12.96 0-9.3 6.63-15.35 15.83-15.35 4.6 0 10.31 1.47 14.36 3.79l-4.72 9.17ZM56.22 94.66v7.64h13.44v10.1H56.22v7.88h14.23v10.1H44.31V84.62h26.14v10.1l-14.23-.07ZM79.3 84.63h16.93c12.77 0 23.32 10.03 23.32 22.87 0 12.84-10.62 22.87-23.32 22.87H79.29V84.63Zm11.96 35.65h2.7c7.12 0 13.2-3.91 13.2-12.78 0-8.2-5.4-12.78-13.08-12.78h-2.82v25.56ZM175.95 106.64c0 14.8-10.68 25.26-25.4 25.26-14.74 0-25.41-10.46-25.41-25.26 0-13.81 12.2-23.54 25.4-23.54s25.41 9.73 25.41 23.55Zm-38.42.07c0 7.89 5.83 13.63 12.95 13.63 7.12 0 12.95-5.75 12.95-13.63 0-6.3-5.83-12.11-12.95-12.11-7.06 0-12.95 5.8-12.95 12.1ZM182.27 84.63h11.97l21.85 28h.12v-28h11.97v45.74H216.2l-21.85-28.07h-.12v28.07h-11.97V84.63ZM249.84 122.42l-3.19 7.95h-12.64l17.67-45.74h13.01L282 130.37h-12.7l-3.01-7.95h-16.45Zm8.35-23.66h-.13l-4.9 14.55h9.94l-4.91-14.55ZM66.22 175.93c4.73-1.6 5.03-7.46.43-7.46-1.29 0-2.82.91-3.87 2.69l-6.26 10.82c-.3.49-.55.92-.92 1.34-1.6-2.2-1.16-5.5 1.1-6.97l-.91-1.16c-4.91 3.12-3.44 12.05 4.72 12.05 6.94 0 10.19-8.32 5.71-11.31Zm-5.77 9.53c-1.41 0-2.45-.3-3.37-.79.42-.49.8-1.04 1.16-1.65l3.93-6.79.61.06c5.46 1.17 3.32 9.18-2.33 9.18Zm2.52-10.57 1.9-3.24c1.72-2.94 3.87-1.23 2.7.97-.92 1.72-2.21 2.2-4.6 2.27Z"/><path fill="#fff" d="M85.92 183.45c-.37 1.34.37 2.5 1.9 2.5.92 0 2.09-.6 3.25-1.52.13.91.86 1.53 2.03 1.53 1.23 0 2.58-.86 3.93-2.08-.25 1.22.3 2.08 1.47 2.08 1.29 0 2.7-1.17 3.8-2.2-.24 1.22.5 2.2 1.97 2.2 1.9 0 4.11-2.08 6.08-4.28 0-.07-.07-.07-.07-.13 1.3-1.47 2.4-3.06 3.26-4.16-.92 2.39-.43 6.73-2.64 6.73-.8 0-1.1-.86-1.1-.86l-1.48.74s.43 1.9 2.58 1.9c.24 0 .43 0 .67-.07h.06c1.72-.24 3.38-1.28 4.85-2.57.06 1.53 1.23 2.63 3.13 2.63 2.64 0 5.28-2.07 7.18-4.28-.18-.3-.55-.67-.86-.8l-.18.2c-1.66 1.95-3.8 3.48-5.46 3.48-1.41 0-2.27-.92-1.23-2.75l.25-.43c1.47.6 4.3.3 6.07-2.7l.3-.54c1.23-2.14.07-3.73-1.83-3.73-1.9 0-3.38.97-4.36 2.69l-2.27 3.85h-.06l-.19.18c-.86.98-1.9 1.9-2.82 2.51.74-2.2.55-5.63 2.03-8.56l-1.72-.92c-.98 1.35-3.07 4.34-5.16 6.79l.06.06-.06.12c-1.66 1.96-3.31 3.49-4.36 3.49-.49 0-.8-.37-.24-1.29l4.97-8.68h-2.33l-4.11 7.22c-1.78 1.59-3.13 2.5-3.56 2.32-.56-.24 0-1.1.3-1.59l4.55-7.89h-2.34L98.5 181c-.06-.06-.12-.06-.18-.12l-.19.18c-1.65 1.96-3.31 3.49-4.35 3.49-.5 0-.8-.37-.25-1.29l3.74-6.54h-1.35c.06-.98-.92-2.32-2.45-2.32-1.23 0-3 .98-4 2.69l-2.32 4.03c-.13-.12-.25-.18-.37-.24l-.19.18c-1.65 1.96-3.8 3.49-5.46 3.49-1.4 0-2.27-.92-1.22-2.75l2.39-4.16c1.35-2.32 3.74-1.9 2.33.49l-.3.55h1.9l.3-.55c1.23-2.14.06-3.73-1.84-3.73-1.9 0-3.37.98-4.36 2.69L78 181.06c-.06-.06-.12-.06-.18-.12l-.19.19c-1.65 1.95-3.8 3.48-5.46 3.48-1.4 0-2.27-.92-1.22-2.75l.24-.43c1.47.61 4.3.3 6.08-2.69l.3-.55c1.23-2.14.06-3.73-1.84-3.73-1.9 0-3.37.98-4.36 2.69l-2.45 4.16c-1.47 2.44-.18 4.77 2.58 4.77 2.02 0 4.1-1.23 5.77-2.82-.07 1.6 1.16 2.82 3.13 2.82 1.96-.13 3.86-1.23 5.52-2.63Zm35.6-5.87c1.34-2.33 3.74-1.9 2.33.49l-.31.55c-1.1 1.9-2.64 1.83-3.5 1.53l1.47-2.57Zm-33.27 5.68 3.25-5.62c1.23-2.14 3.75-1.6 2.58.49l-1.84 3.18c-1.41 2.2-2.82 3.24-3.74 3.24-.5-.06-.8-.37-.25-1.29Zm-14.85-5.68c1.35-2.33 3.74-1.9 2.33.49l-.3.55c-1.11 1.9-2.64 1.83-3.5 1.53l1.47-2.57ZM152.32 185.95c2.64 0 5.28-2.07 7.18-4.28-.18-.3-.55-.67-.86-.8l-.18.2c-1.66 1.95-3.8 3.48-5.46 3.48-1.41 0-2.27-.92-1.23-2.75l.25-.43c1.47.6 4.3.3 6.07-2.7l.3-.54c1.24-2.14.07-3.73-1.83-3.73-1.9 0-3.38.97-4.36 2.69l-2.27 3.85s-.06 0-.06-.06l-.19.18c-1.65 1.96-3.31 3.49-4.35 3.49-.5 0-.8-.37-.25-1.29l3.38-5.87c.98-1.77.06-3.05-1.23-3.05-.98 0-2.09.55-3.25 1.77l3.74-6.42h-2.4L138.77 181c-.06-.06-.18-.12-.25-.18l-.18.18c-1.66 1.96-3.31 3.49-4.36 3.49-.49 0-.8-.37-.24-1.29l4.97-8.68h1.9l.68-1.1h-1.9l2.2-3.8h-2.33l-2.2 3.8h-2.1l-.67 1.1h2.15l-4.67 8.07c-.98 1.71-.3 3.3 1.6 3.3 1.16 0 2.4-.73 3.68-1.83l-.92 1.59h2.33l3.56-6.12c3.56-4.46 5.16-3.91 4.18-2.2l-3.01 5.26c-.98 1.71-.3 3.3 1.6 3.3 1.4 0 3-1.1 4.47-2.56 0 1.52 1.17 2.62 3.07 2.62Zm1.9-8.37c1.36-2.33 3.75-1.9 2.34.49l-.3.55c-1.11 1.9-2.65 1.83-3.5 1.53l1.47-2.57ZM222.9 180.88l-.18.18c-1.66 1.96-3.32 3.49-4.36 3.49-.5 0-.8-.37-.25-1.29l7.86-13.57h-2.33l-3.44 5.87a2.53 2.53 0 0 0-2.15-1.22c-1.23 0-3 .97-3.99 2.69l-2.27 3.91c-.06 0-.12-.06-.12-.06l-.18.18c-1.66 1.96-3.32 3.49-4.36 3.49-.5 0-.8-.37-.25-1.29l3.38-5.87c.98-1.77.06-3.05-1.23-3.05-.98 0-2.09.55-3.25 1.7l.86-1.52h-2.34l-3.74 6.42c-.06-.06-.12-.12-.25-.12l-.18.18c-1.66 1.96-3.31 3.49-4.36 3.49-.49 0-.8-.37-.24-1.29l3.74-6.54h-1.16c.06-.98-.93-2.32-2.46-2.32-1.23 0-3 .97-3.99 2.69l-2.27 3.85-.12.12c-1.66 1.96-3.32 3.49-4.36 3.49-.49 0-.8-.37-.24-1.29l2.33-4.03c.8-1.41.43-2.2-.3-3.12l-1.3-1.6c-.3-.42-.3-.9.13-1.34l-1.23-1.34c-1.35 1.16-1.41 2.5-.62 3.54l.19.25c-1.05 1.47-2.4 3.42-3.93 5.2l.18.18c-1.9 2.2-3.56 3.6-5.4 4.4l2.95-5.01h-2.27l-.25.43c-1.22 2.14-2.64 3.73-4.48 3.73-1.6 0-1.9-1.6-.49-3.98l.68-1.16c.43.06.86.12 1.35.12 8.28 0 12.27-11.06 4.97-11.06-1.29 0-2.83.91-3.87 2.69l-3.62 6.23a3.8 3.8 0 0 1-2.09-3.3c0-1.1.5-2.14 1.48-2.94l-.74-1.34a5.24 5.24 0 0 0-2.4 4.34c0 1.84 1.05 3.6 2.95 4.59l-.67 1.22c-1.66 2.81-1.35 5.93 1.96 5.93.98 0 1.84-.3 2.52-.73l-.61 1.04c-3.13.98-5.1 2.2-5.1 3.97 0 2.2 3.44 2.7 5.1-.18l1.77-3.06c2.4-.73 4.8-2.38 7.37-5.38-.06-.06-.06-.12-.12-.24 1.04-1.23 1.9-2.39 3.68-4.77l.3.36c.31.37.44.86.13 1.35l-2.46 4.28c-.98 1.71-.3 3.3 1.6 3.3 1.16 0 2.45-.73 3.68-1.83 0 1.04.68 1.83 2.03 1.83.92 0 2.08-.61 3.25-1.53.12.92.86 1.53 2.02 1.53 1.1 0 2.34-.67 3.5-1.71l-.86 1.47h2.34l3.56-6.18c3.55-4.46 5.15-3.85 4.1-2.14l-3 5.26c-.98 1.71-.3 3.3 1.6 3.3 1.22 0 2.57-.86 3.92-2.02-.12 1.16.62 2.02 2.03 2.02.92 0 2.09-.61 3.25-1.53.12.92.86 1.53 2.03 1.53 1.9 0 4.1-2.08 6.07-4.28-.24-.12-.67-.49-.98-.61Zm-47.8-8.68c.67-1.17 1.47-1.72 2.08-1.72 3.68 0 1.1 7.53-4.97 7.53h-.5l3.38-5.81Zm-4.98 17.49c-.49.85-1.29.73-1.29.12 0-.62.55-1.29 2.33-1.96l-1.04 1.84Zm24.37-8.44c-1.42 2.2-2.83 3.24-3.75 3.24-.49 0-.8-.37-.24-1.29l3.25-5.62c1.23-2.14 3.74-1.6 2.58.49l-1.84 3.18Zm22.52-.13c-1.41 2.33-2.82 3.37-3.8 3.37-.5 0-.8-.37-.25-1.29l3.25-5.62c1.23-2.14 3.74-1.6 2.58.49l-1.78 3.05ZM145.14 202.9l-.18.18c-1.66 1.95-3.31 3.48-4.36 3.48-.49 0-.8-.37-.24-1.28l3.37-5.87c.98-1.78.06-3.06-1.23-3.06-.98 0-2.08.55-3.25 1.71l.86-1.53h-2.33l-3.75 6.48c-.12-.06-.18-.12-.3-.18l-.19.18a4.79 4.79 0 0 1-3.5 1.72l2.22-3.8c1.4-2.44.12-4.7-2.1-4.7-1.77 0-3.18.73-4.53 3.06l-1.17 1.95-.98 1.71c-.06-.06-.12-.06-.19-.12l-.18.18c-1.9 2.2-3.56 3.61-5.4 4.4l6.38-10.88h-2.33l-4.11 7.16c-1.78 1.65-3.2 2.57-3.62 2.38-.56-.24 0-1.1.3-1.59l4.55-7.89h-2.34l-3.74 6.42c-.06-.06-.12-.06-.18-.12l-.19.19c-1.66 1.95-3.31 3.48-4.36 3.48-.49 0-.8-.37-.24-1.28l3.38-5.87c.98-1.78.06-3.06-1.23-3.06-.98 0-2.09.55-3.26 1.71l.86-1.53h-2.33l-3.74 6.42c-.06-.06-.13-.12-.25-.12l-.18.18c-1.66 1.96-3.32 3.49-4.36 3.49-.49 0-.8-.37-.24-1.28l3.74-6.55h-1.35c.06-.97-.92-2.32-2.46-2.32-1.22 0-3 .98-3.98 2.69l-2.4 4.16a5.66 5.66 0 0 0-.49-.3l-.18.18c-1.66 1.95-3.75 3.48-6.02 3.48-1.6 0-2.58-1.59-1.16-3.97l.67-1.16c.43.06.86.12 1.35.12 2.46 0 5.28-1.29 7.12-4.47.68-1.16.92-2.2.92-3.12 0-2.07-1.35-3.48-3.07-3.48-1.29 0-2.82.92-3.86 2.69l-3.63 6.24a3.8 3.8 0 0 1-2.08-3.3c0-1.1.49-2.15 1.47-2.94l-.74-1.34a5.23 5.23 0 0 0-2.39 4.34c0 1.83 1.04 3.6 2.95 4.58l-.68 1.22c-1.65 2.82-.67 5.94 2.64 5.94 2.58 0 4.54-1.16 6.14-2.7-.5 1.47.24 2.7 1.9 2.7.92 0 2.09-.62 3.25-1.53.13.91.86 1.53 2.03 1.53 1.1 0 2.33-.68 3.5-1.72l-.86 1.47h2.33l3.56-6.17c3.56-4.47 5.15-3.86 4.11-2.14l-3 5.25c-.99 1.72-.31 3.3 1.59 3.3 1.23 0 2.64-.85 3.99-2.07-.3 1.28.3 2.08 1.47 2.08 1.1 0 2.4-.92 3.44-1.9l-1.29 2.2c-3.13.92-5.16 2.2-5.16 3.98 0 2.2 3.44 2.69 5.1-.19l1.78-3.05c1.96-.61 3.86-1.84 5.89-3.8-.3 3.25 3.99 3.98 6.63.68h.49c.86 0 2.02-.3 3.07-.92l-1.54 2.7h2.33l3.56-6.19c3.56-4.46 5.16-3.85 4.12-2.13l-3.01 5.25c-.98 1.72-.3 3.3 1.6 3.3 1.9 0 4.1-2.07 6.07-4.28-.06-.18-.49-.55-.8-.67Zm-57.93-8.7c.67-1.15 1.47-1.7 2.09-1.7.85 0 1.28.55 1.28 1.4 0 2.14-2.64 6.06-6.26 6.06h-.49l3.38-5.75Zm8.22 9.06c-1.4 2.2-2.82 3.24-3.74 3.24-.5 0-.8-.37-.25-1.28l3.26-5.63c1.22-2.14 3.74-1.59 2.57.49l-1.84 3.18Zm17.68 8.44c-.5.85-1.3.73-1.3.12s.56-1.28 2.34-1.96l-1.04 1.84Zm15.7-8.69h-.12c-.73 0-1.34.62-1.34 1.41 0 .3.06.55.24.8v.06c-1.1 1.9-3.74 1.53-2.4-.92l1.79-3.06 1.1-1.9c1.66-2.75 3.87-1.64 2.46.74l-1.72 2.88ZM199.09 203.69a1.37 1.37 0 0 0-.86-.8l-.19.19c-.85.97-1.9 1.9-2.82 2.5.74-2.2.55-5.62 2.03-8.56l-1.72-.91c-.98 1.34-3.07 4.34-5.16 6.78l-.18.19c-1.66 1.95-3.31 3.48-4.36 3.48-.49 0-.98-.49-.98-1.59V204c1.66.19 3.38-.85 4.48-2.75l.61-1.1c2.15-3.73-1.35-4.95-3.74-2.75l3.31-5.75h-2.33l-6.63 11.5c-.12-.12-.3-.25-.43-.3l-.18.18c-1.66 1.95-3.8 3.48-5.46 3.48-1.41 0-2.27-.92-1.23-2.75l2.4-4.16c1.34-2.32 3.74-1.9 2.33.5l-.31.54h1.9l.3-.55c1.24-2.14.07-3.73-1.83-3.73-1.9 0-3.38.98-4.36 2.7l-2.27 3.9c-.06 0-.12-.06-.12-.06l-.19.19c-1.65 1.95-3.31 3.48-4.35 3.48-.5 0-.8-.36-.25-1.28l4.97-8.69h-2.33l-4.11 7.22c-1.78 1.6-3.13 2.5-3.56 2.32-.56-.24 0-1.1.3-1.59l4.55-7.88h-2.34l-4.54 7.76c-.49.43-1.04.86-1.47 1.23.74-2.2.55-5.63 2.02-8.57l-1.71-.91c-.99 1.34-6.32 8.44-8.47 10.88.18.3.55.55.86.8 1.35-1.53 5.77-7.22 6.56-8.32-.92 2.38-.43 6.73-2.64 6.73-.8 0-1.1-.86-1.1-.86l-1.47.73s.43 1.9 2.57 1.9c.25 0 .43 0 .68-.06h.06a8.05 8.05 0 0 0 3.44-1.47c0 .92.55 1.53 1.53 1.53 1.29 0 2.7-1.16 3.8-2.2-.24 1.22.5 2.2 1.97 2.2s3.07-1.16 4.6-2.7c0 1.54 1.23 2.7 3.13 2.7s3.75-1.04 5.4-2.45l-1.28 2.27h2.33l2.64-4.59v1.84c0 1.95.36 3 2.27 3 1.9 0 4.1-2.09 6.07-4.29 1.35-1.53 2.46-3.12 3.32-4.22-.92 2.39-.43 6.73-2.64 6.73-.8 0-1.1-.86-1.1-.86l-1.48.74s.43 1.9 2.58 1.9c.24 0 .43 0 .67-.07h.06c2.34-.43 4.73-2.32 6.45-4.34Zm-15.47-1.84.68-1.16c2.7-3.73 4.54-2.69 3.68-1.28l-1.1 1.9c-.68 1.22-2.7 2.07-3.26.54ZM199.03 205.28c-.74 0-1.35.61-1.35 1.34 0 .74.55 1.35 1.35 1.35.73 0 1.35-.55 1.35-1.35 0-.73-.62-1.34-1.35-1.34ZM199.15 204.36h2.33l7.3-12.66h-2.33l-7.3 12.66ZM49.22 169.75c0 .18-.06.37-.12.55-.06.18-.19.37-.31.49s-.3.25-.5.37c-.18.06-.42.12-.67.12-.3 0-.55-.06-.8-.18-.24-.13-.48-.25-.67-.43-.18-.19-.24-.37-.37-.61a3.08 3.08 0 0 1-.12-.8c0-.55.12-.98.3-1.47.2-.42.44-.85.8-1.16.13-.12.31-.3.5-.43.18-.12.36-.24.55-.3.18-.06.3-.19.43-.25.12-.06.18-.06.24-.12l.86 1.22c-.12.06-.3.13-.49.25-.18.06-.37.18-.55.3-.19.13-.3.31-.43.5-.12.18-.18.36-.18.6.42 0 .73.13 1.04.37.37.19.49.55.49.98Zm4.85 0c0 .18-.06.37-.12.55-.07.18-.19.37-.31.49s-.3.25-.5.37c-.18.06-.42.12-.67.12-.3 0-.55-.06-.8-.18-.24-.13-.49-.25-.67-.43-.12-.19-.25-.37-.37-.61a3.08 3.08 0 0 1-.12-.8c0-.55.12-.98.3-1.47.19-.42.43-.85.8-1.16.13-.12.31-.3.5-.43.18-.12.36-.24.55-.3.18-.06.3-.19.43-.25.12-.06.18-.06.24-.12l.86 1.22c-.12.06-.3.13-.49.25-.18.06-.37.18-.55.3-.19.13-.31.31-.43.5-.13.18-.19.36-.19.6.43 0 .74.13 1.05.37.3.19.49.55.49.98ZM216.76 205.77c0-.19.06-.37.13-.55.06-.19.18-.37.3-.5.13-.12.3-.24.5-.36.18-.06.42-.12.67-.12.3 0 .55.06.8.18.24.12.49.25.67.43.18.18.25.37.37.61.06.25.12.5.12.8 0 .55-.12.98-.3 1.46-.19.43-.43.86-.8 1.17a3.41 3.41 0 0 1-1.05.73c-.18.06-.3.18-.42.24-.13.06-.19.06-.25.13l-.86-1.23c.12-.06.3-.12.5-.24.18-.06.36-.18.54-.3.19-.13.31-.31.43-.5.13-.18.19-.36.19-.6-.43 0-.74-.13-1.05-.37-.3-.19-.49-.56-.49-.98Zm-4.78 0c0-.19.06-.37.12-.55.06-.19.18-.37.3-.5.13-.12.31-.24.5-.36.18-.06.43-.12.67-.12.3 0 .55.06.8.18s.49.25.67.43c.13.18.25.37.37.61.06.25.13.5.13.8 0 .55-.13.98-.31 1.46-.19.43-.43.86-.8 1.17-.12.12-.3.3-.49.42-.19.13-.37.25-.55.31-.19.06-.31.18-.43.24-.13.06-.19.06-.25.13l-.86-1.23c.19-.06.31-.12.5-.24.18-.06.36-.18.55-.3.18-.13.3-.31.43-.5.12-.18.18-.36.18-.6-.43 0-.74-.13-1.04-.37-.37-.19-.5-.56-.5-.98Z"/>
  </symbol>


  <symbol id="burger-menu"
    width="32"
    height="32"
    fill="none"
    viewBox="0 0 32 32">
    <path fill="#81B3D2" d="M28 6H4v4h24V6ZM28 14H4v4h24v-4ZM28 22H4v4h24v-4Z"/>
  </symbol>

  <symbol id="check"
    width="22"
    height="16"
    fill="currentColor"
    viewBox="0 0 22 16">
    <path d="M21.8 1.3 20.77.23a.84.84 0 0 0-1.14 0L8.3 11.96 2.4 5.84a.84.84 0 0 0-1.14 0L.21 6.93c-.28.3-.28.89 0 1.18l7.42 7.7c.2.19.38.19.57.19.2 0 .38-.1.57-.2L21.61 2.5c.48-.3.48-.79.2-1.18Z"/>
  </symbol>

  <symbol id="cross"
    width="32"
    height="32"
    fill="none"
    viewBox="0 0 32 32">
    <path fill="#81B3D2" d="M29 6.15 25.72 3 16 12.35 6.28 3 3 6.15l9.72 9.35L3 24.85 6.28 28 16 18.65 25.72 28 29 24.85l-9.72-9.35L29 6.15Z"/>
  </symbol>


  <symbol id="social__telegram"
    aria-hidden="true"
    focusable="false"
    width="24"
    height="24"
    fill="currentColor"
    viewBox="0 0 24 24">
    <path d="m22.44 4.62-3.17 14.95c-.24 1.05-.86 1.31-1.75.82l-4.83-3.56-2.33 2.24c-.25.26-.47.47-.97.47l.35-4.91 8.95-8.09c.39-.35-.09-.54-.6-.2L7.01 13.32l-4.76-1.49c-1.04-.32-1.05-1.03.22-1.53L21.1 3.11c.87-.32 1.62.2 1.34 1.51Z"/>
  </symbol>

  <symbol id="social__vk"
    aria-hidden="true"
    focusable="false"
    width="24"
    height="24"
    fill="currentColor"
    viewBox="0 0 24 24">
    <path d="M23.45 5.95c.17-.55 0-.95-.8-.95h-2.62c-.67 0-.98.35-1.14.73 0 0-1.34 3.2-3.23 5.27-.61.6-.89.8-1.22.8-.17 0-.42-.2-.42-.74V5.95c0-.66-.18-.95-.74-.95H9.15c-.42 0-.67.3-.67.6 0 .61.95.76 1.05 2.5v3.8c0 .84-.16.99-.5.99-.88 0-3.05-3.21-4.33-6.89-.25-.71-.5-1-1.17-1H.9c-.75 0-.9.35-.9.73 0 .68.89 4.07 4.14 8.55C6.32 17.34 9.38 19 12.15 19c1.67 0 1.88-.37 1.88-1v-2.32c0-.73.16-.88.69-.88.38 0 1.05.2 2.61 1.67C19.11 18.22 19.4 19 20.41 19h2.62c.75 0 1.13-.37.91-1.1-.24-.72-1.09-1.77-2.21-3.02-.62-.7-1.54-1.47-1.81-1.86-.4-.49-.28-.7 0-1.14 0 0 3.2-4.43 3.53-5.93Z"/>
  </symbol>

  <symbol id="social__youtube"
    aria-hidden="true"
    focusable="false"
    width="24"
    height="24"
    fill="currentColor"
    viewBox="0 0 24 24">
    <path d="M19.18 5H4.81C3.31 5 2 6.3 2 7.8v8.3C2 17.7 3.3 19 4.81 19h14.37A2.8 2.8 0 0 0 22 16.2V7.8c.1-1.5-1.2-2.8-2.8-2.8ZM9.03 15.4V8.6l6.84 3.4-6.84 3.4Z"/>
  </symbol>
</svg>
